<svg width="1024" height="374" viewBox="0 0 1024 374" fill="none" xmlns="http://www.w3.org/2000/svg">
<path d="M98.022 221.205C135.844 213.917 210.164 196.5 241.463 167.554C238.545 163.467 200.762 143.98 200.762 143.98C200.762 143.98 245.75 143.98 263.957 143.98C295.017 139.707 306.348 0 306.348 0C306.348 0 177.194 70.085 142.914 113.826C108.64 157.58 75.034 225.222 75.034 225.222L75.053 225.216C32.591 270.364 0 306.348 0 306.348L35.727 287.357L98.022 221.205ZM290.962 23.407C289.542 35.052 287.53 49.654 284.818 64.494C274.741 119.765 264.149 129.72 262.183 131.134H200.762C194.83 131.134 189.663 135.189 188.275 140.948C186.88 146.713 189.599 152.683 194.869 155.402C202.89 159.547 211.804 164.329 218.963 168.352C190.833 185.692 145.909 197.825 113.351 204.927L276.201 32.013C281.547 28.863 286.54 25.952 290.962 23.407ZM153.029 121.756C171.558 98.112 220.961 65.438 259.933 41.755C230.408 68.799 190.806 105.933 153.177 143.987C138.46 158.865 123.446 174.36 108.845 189.618C121.12 168.1 137.059 142.142 153.029 121.756ZM173.647 270.737C212.934 275.094 251.386 284.098 288.617 296.367C269.356 292.749 250.14 289.24 230.782 286.778C211.482 284.047 192.118 281.951 172.806 280.73C156.058 279.85 139.329 279.483 122.805 280.749C126.333 281.379 129.875 282.002 133.409 282.645C143.03 284.438 152.702 286.218 162.465 288.487C167.369 289.682 172.208 290.846 177.42 292.876C178.731 293.409 180.074 293.988 181.597 294.888C182.368 295.357 183.191 295.878 184.155 296.777C185.035 297.709 186.475 299.007 186.97 302.041C187.381 305.203 185.697 307.639 184.701 308.654C183.602 309.792 182.702 310.325 181.886 310.826L180.601 311.501L179.598 311.957L177.503 312.76C166.674 316.179 156.886 316.526 146.853 317.175C136.904 317.663 127.026 317.593 117.18 317.323C77.796 316.275 38.779 312.117 0.00600004 306.346C19.614 306.616 39.152 307.349 58.702 307.361C78.233 307.657 97.758 307.727 117.193 307.329C126.904 307.072 136.589 306.654 146.165 305.954C153.582 305.311 161.3 304.534 168.074 302.876C165.343 302.086 162.508 301.359 159.636 300.704C150.324 298.635 140.735 296.964 131.114 295.267C121.474 293.448 111.904 291.822 101.93 289.322C99.301 288.557 97.091 288.152 93.479 286.295C92.939 285.961 92.438 285.684 91.622 284.965C90.986 284.277 89.385 283.101 89.135 279.701C89.077 278.081 89.713 276.584 90.298 275.736C90.87 274.868 91.487 274.322 91.873 273.994C92.811 273.261 93.358 273.024 93.942 272.721C95.992 271.802 97.31 271.558 98.743 271.224C104.187 270.119 109 269.63 114.084 269.225C134.064 267.742 154.019 268.494 173.647 270.737Z" fill="black"/>
<path d="M360.048 249.512C356.464 249.512 353.989 245.416 352.624 237.224C351.429 228.861 350.405 214.184 349.552 193.192L348.784 174.504C348.443 168.019 347.248 158.035 345.2 144.552C345.029 142.845 344.347 137.64 343.152 128.936C341.957 120.232 341.36 112.552 341.36 105.896C341.36 104.872 341.872 103.592 342.896 102.056C343.92 100.349 345.2 99.496 346.736 99.496C348.955 99.496 350.405 100.52 351.088 102.568C351.941 104.616 352.453 106.664 352.624 108.712C352.965 110.589 353.136 111.784 353.136 112.296C354.16 115.197 354.928 119.208 355.44 124.328C355.952 129.277 356.379 134.568 356.72 140.2C357.403 151.293 358.085 159.229 358.768 164.008L366.704 152.744C377.797 136.36 387.781 123.219 396.656 113.32C405.701 103.421 414.491 98.6427 423.024 98.984C423.707 99.6667 424.048 100.52 424.048 101.544C424.048 103.251 423.195 105.213 421.488 107.432C419.781 109.651 417.221 112.552 413.808 116.136L408.432 121.768C406.555 123.987 400.837 130.301 391.28 140.712C384.624 147.709 379.163 153.683 374.896 158.632C370.629 163.581 367.387 168.104 365.168 172.2C372.677 182.611 381.552 191.827 391.792 199.848C402.203 207.869 415.771 217.341 432.496 228.264L440.176 233.128C443.248 234.323 445.637 235.944 447.344 237.992C449.221 239.869 450.16 241.832 450.16 243.88C450.16 244.904 449.904 245.928 449.392 246.952C448.197 249 446.747 250.024 445.04 250.024C443.163 250.024 439.835 248.829 435.056 246.44L421.232 236.712C406.213 226.813 393.413 217.597 382.832 209.064C372.251 200.531 364.912 192.424 360.816 184.744L362.352 203.944C363.888 221.523 364.656 233.299 364.656 239.272C364.656 243.539 364.315 246.355 363.632 247.72C362.949 248.915 361.755 249.512 360.048 249.512ZM589.514 257.704C588.319 259.069 586.613 259.752 584.394 259.752C576.373 259.752 563.573 252.413 545.994 237.736C528.586 222.888 513.141 208.125 499.658 193.448C500.511 198.056 502.133 205.821 504.522 216.744C505.546 221.011 506.399 225.107 507.082 229.032C507.935 232.957 508.362 236.029 508.362 238.248C508.362 243.197 506.57 246.184 502.986 247.208C502.133 249.427 499.829 243.88 496.074 230.568C492.49 217.256 489.077 201.896 485.834 184.488C482.762 166.909 481.226 152.232 481.226 140.456C481.226 134.483 481.738 129.619 482.762 125.864C484.981 124.157 486.858 123.304 488.394 123.304C491.466 123.304 493.599 125.949 494.794 131.24C495.989 136.36 497.098 144.467 498.122 155.56L498.634 161.448C505.29 161.107 514.335 159.656 525.77 157.096C537.375 154.536 547.701 151.037 556.746 146.6C565.962 141.992 570.57 136.531 570.57 130.216C570.57 126.803 568.095 123.048 563.146 118.952C558.367 114.685 550.943 111.101 540.874 108.2C530.975 105.299 518.773 103.848 504.266 103.848H496.074C486.346 103.848 478.751 105.469 473.29 108.712C467.829 111.784 465.098 118.44 465.098 128.68C462.538 128.68 460.234 127.059 458.186 123.816C456.138 120.573 455.114 117.587 455.114 114.856C455.114 104.275 460.149 97.3627 470.218 94.12C480.458 90.8773 495.135 89.256 514.25 89.256C524.319 89.256 534.815 90.8773 545.738 94.12C556.661 97.3627 565.877 102.483 573.386 109.48C580.895 116.307 584.65 124.84 584.65 135.08C584.65 142.077 581.493 147.88 575.178 152.488C569.034 157.096 561.781 160.68 553.418 163.24C545.055 165.8 534.815 168.445 522.698 171.176C512.629 173.395 506.058 175.016 502.986 176.04C516.127 193.789 528.757 207.613 540.874 217.512C553.162 227.411 565.962 236.371 579.274 244.392C583.882 247.123 587.125 249.171 589.002 250.536C590.879 251.901 591.818 253.181 591.818 254.376C591.818 255.571 591.05 256.68 589.514 257.704ZM634.246 249C632.027 249.853 629.894 249.341 627.846 247.464C625.969 245.587 624.945 242.941 624.774 239.528C624.091 234.579 623.323 228.52 622.47 221.352C621.787 214.184 621.275 208.893 620.934 205.48C620.593 202.067 619.825 195.496 618.63 185.768C617.606 175.869 616.497 167.336 615.302 160.168C614.961 157.779 613.851 153.512 611.974 147.368C607.025 129.789 604.55 117.075 604.55 109.224C605.745 107.517 606.939 106.664 608.134 106.664C612.571 106.664 617.179 115.539 621.958 133.288C626.737 151.037 630.747 171.091 633.99 193.448C637.403 215.635 639.11 230.824 639.11 239.016C639.11 239.357 639.11 240.467 639.11 242.344C639.11 244.051 638.683 245.501 637.83 246.696C637.147 247.891 635.953 248.659 634.246 249ZM745.696 239.272C759.691 239.272 770.528 237.309 778.208 233.384C785.888 229.459 789.728 223.741 789.728 216.232C789.728 209.576 787.424 203.859 782.816 199.08C778.208 194.131 772.491 189.949 765.664 186.536C758.837 183.123 749.536 179.112 737.76 174.504C736.736 174.163 734.261 173.224 730.336 171.688C714.293 165.203 701.92 158.717 693.216 152.232C684.683 145.747 680.416 137.384 680.416 127.144C680.416 115.709 684.939 107.091 693.984 101.288C703.029 95.4853 714.635 92.584 728.8 92.584C739.211 92.584 748.768 93.9493 757.472 96.68C766.347 99.24 773.344 102.824 778.464 107.432C783.755 112.04 786.4 117.245 786.4 123.048C784.352 124.072 782.389 124.584 780.512 124.584C778.464 124.584 776.331 124.157 774.112 123.304C772.064 122.28 768.992 120.659 764.896 118.44C758.24 114.856 752.011 112.04 746.208 109.992C740.405 107.773 733.579 106.664 725.728 106.664C715.829 106.664 707.808 108.371 701.664 111.784C695.52 115.197 692.448 119.976 692.448 126.12C692.448 130.899 694.496 135.251 698.592 139.176C702.859 143.101 708.149 146.6 714.464 149.672C720.949 152.573 729.568 156.072 740.32 160.168C753.973 165.459 765.237 170.408 774.112 175.016C782.987 179.624 790.496 185.512 796.64 192.68C802.955 199.677 806.112 208.04 806.112 217.768C806.112 229.203 800.651 238.077 789.728 244.392C778.805 250.536 765.237 253.608 749.024 253.608C736.224 253.608 723.595 251.731 711.136 247.976C698.677 244.221 688.011 238.675 679.136 231.336C670.261 223.827 664.629 214.867 662.24 204.456C662.24 199.848 663.52 195.923 666.08 192.68C668.64 189.267 671.797 187.56 675.552 187.56C675.552 198.653 678.624 208.125 684.768 215.976C691.083 223.656 699.531 229.459 710.112 233.384C720.864 237.309 732.725 239.272 745.696 239.272ZM905.594 249.256C900.815 249.256 897.487 246.781 895.61 241.832C893.733 236.883 892.197 230.227 891.002 221.864L890.234 215.464C887.674 201.811 885.626 188.243 884.09 174.76C882.554 161.107 881.018 144.637 879.482 125.352L877.946 106.408C867.706 106.579 853.114 106.152 834.17 105.128L829.05 104.872C826.661 104.701 824.954 103.592 823.93 101.544C823.077 99.3253 822.65 96.3387 822.65 92.584H840.314C870.01 92.584 896.805 93.6933 920.698 95.912C944.591 98.1307 956.538 102.653 956.538 109.48C956.538 111.357 956.197 112.637 955.514 113.32C955.002 114.003 953.807 114.344 951.93 114.344C945.103 113.832 934.522 112.381 920.186 109.992C916.943 109.48 913.018 108.883 908.41 108.2C903.802 107.517 898.597 106.835 892.794 106.152C892.794 130.899 896.463 168.957 903.802 220.328C904.143 222.888 905.338 226.557 907.386 231.336C908.239 233.384 909.007 235.603 909.69 237.992C910.543 240.211 910.97 242.259 910.97 244.136C910.97 246.525 910.629 247.976 909.946 248.488C909.263 249 908.41 249.256 907.386 249.256C906.533 249.256 905.935 249.256 905.594 249.256ZM1005.5 249C1003.28 249.853 1001.14 249.341 999.096 247.464C997.219 245.587 996.195 242.941 996.024 239.528C995.341 234.579 994.573 228.52 993.72 221.352C993.037 214.184 992.525 208.893 992.184 205.48C991.843 202.067 991.075 195.496 989.88 185.768C988.856 175.869 987.747 167.336 986.552 160.168C986.211 157.779 985.101 153.512 983.224 147.368C978.275 129.789 975.8 117.075 975.8 109.224C976.995 107.517 978.189 106.664 979.384 106.664C983.821 106.664 988.429 115.539 993.208 133.288C997.987 151.037 1002 171.091 1005.24 193.448C1008.65 215.635 1010.36 230.824 1010.36 239.016C1010.36 239.357 1010.36 240.467 1010.36 242.344C1010.36 244.051 1009.93 245.501 1009.08 246.696C1008.4 247.891 1007.2 248.659 1005.5 249Z" fill="black"/>
</svg>
